
<svg width="224px" height="56px" viewBox="0 0 224 56" version="1.1" xmlns="http://www.w3.org/2000/svg" xmlns:xlink="http://www.w3.org/1999/xlink">
    <g id="Designs" stroke="none" stroke-width="1" fill="none" fill-rule="evenodd">
        <g id="aj-home-design-2" transform="translate(-32.000000, -16.000000)" fill-rule="nonzero">
            <g id="logo-white.v1538019827" transform="translate(32.000000, 32.000000)" fill="#FFFFFF">
                <path d="M150.571,15.485 C149.182,17.61 141.383,24.37 137.175,24.37 C136.194,24.37 135.541,24.084 135.541,23.43 C135.541,20.778 140.949,15.985 141.817,15.985 C141.98,15.985 142.133,16.21 142.133,16.41 C142.133,16.802 140.07,19.152 139.437,19.744 C139.437,19.948 139.682,20.347 140.224,20.347 C141.072,20.347 145.648,16.455 145.648,15.076 C145.648,14.79 144.872,13.911 144.259,13.574 C144.096,13.145 142.962,11.385 141.95,11.385 C140.415,11.385 136.923,13.905 134.623,17.141 C131.911,19.54 128.56,22.403 128.081,22.403 C127.703,22.403 127.632,22.124 127.632,21.872 C127.632,20.841 130.84,16.669 133.455,13.897 C133.455,12.706 131.575,11.385 130.103,11.385 C129.432,11.385 126.978,15.166 124.976,18.645 C122.729,20.593 120.532,22.403 120.151,22.403 C119.773,22.403 119.702,22.124 119.702,21.872 C119.702,20.615 122.395,15.903 125.272,11.525 C127.329,11.314 128.983,11.054 129.829,10.763 C130.845,10.413 130.278,8.954 130.278,8.954 C129.348,8.959 128.232,8.97 126.997,8.974 C128.611,6.657 130.124,4.688 131.08,3.758 C131.08,3.125 129.2,1.497 127.784,1.497 C126.927,1.497 124.581,4.819 122.078,8.934 C115.771,8.794 108.647,8.221 106.178,6.14 C105.948,5.946 105.595,4.942 105.176,4.932 C104.859,4.924 104.461,6.112 104.434,7.229 C104.394,8.851 104.584,10.598 105.82,11.309 C106.569,11.74 108.848,11.969 111.737,12.043 C109.469,13.35 106.395,16.238 105.598,17.08 C105.462,16.978 105.641,16.712 105.671,16.682 C105.763,16.58 106.579,14.899 106.645,14.03 C106.754,12.6 105.283,11.388 103.458,11.388 C103.439,11.534 103.126,12.35 102.527,13.646 C99.883,18.529 92.475,24.272 90.697,24.272 C90.13,24.272 89.907,24.076 89.907,23.531 C89.907,23.208 90.074,22.725 90.343,22.154 C90.587,22.284 90.966,22.406 91.569,22.406 C93.305,22.406 98.983,17.391 99.113,15.079 C99.01,14.429 98.356,13.789 97.668,13.352 C97.239,12.719 96.246,11.388 95.437,11.388 C92.997,11.388 88.89,15.758 86.959,20.157 C85.598,21.437 84.277,22.407 83.583,22.407 C83.285,22.407 83.207,22.097 83.207,21.849 C83.207,20.698 86.983,15.151 88.083,13.813 C88.083,12.883 86.136,11.389 84.95,11.389 C83.684,11.389 78.538,16.565 74.349,21.4 C74.631,19.02 83.032,6.848 86.015,3.947 C86.015,2.954 84.127,1.265 82.534,1.501 C81.098,1.713 75.289,11.157 71.705,17.863 C69.177,20.079 66.41,22.408 65.978,22.408 C65.6,22.408 65.529,22.129 65.529,21.877 C65.529,20.531 68.686,15.223 71.835,10.606 C73.224,10.375 74.385,10.116 75.127,9.85 C76.139,9.487 75.553,8.036 75.553,8.036 C74.936,8.047 74.279,8.065 73.607,8.082 C74.999,6.161 76.263,4.57 77.093,3.763 C77.093,3.13 75.722,1.212 73.612,1.502 C72.826,1.61 70.781,4.487 68.512,8.167 C63.679,8.157 58.755,7.752 56.279,5.718 C56.046,5.527 55.68,4.527 55.261,4.522 C54.944,4.518 54.562,5.711 54.549,6.828 C54.53,8.45 54.742,10.195 55.987,10.89 C56.327,11.08 56.888,11.22 57.599,11.319 C54.448,15.917 48.882,22.49 48.101,22.49 C47.978,22.49 47.638,22.327 47.638,21.877 C47.638,20.256 53.35,13.596 54.453,12.697 C54.453,11.866 52.676,9.973 51.409,9.973 C49.72,9.973 42.642,21.087 42.642,24.274 C42.642,25.786 44.219,27.624 45.853,27.624 C47.038,27.624 52.776,20.413 52.858,20.317 C52.94,20.221 53.013,20.405 53.013,20.501 C53.013,20.596 51.133,23.892 51.133,24.274 C51.133,27.243 53.42,27.624 53.774,27.624 C54.654,27.624 58.348,23.958 61.66,20.474 C60.72,22.378 60.111,23.796 60.073,24.273 C59.891,26.543 61.687,27.623 62.525,27.623 C63.348,27.623 66.656,24.617 69.845,21.523 C69.2,22.89 68.811,23.887 68.811,24.273 C68.811,26.99 70.739,27.623 71.577,27.623 C72.199,27.623 73.183,25.743 74.163,24.273 C76.288,21.535 79.014,18.399 81.436,16.51 C81.779,16.243 81.988,16.53 81.988,16.673 C81.641,17.194 77.575,22.741 77.575,24.273 C77.575,25.989 78.566,27.623 80.323,27.623 C80.967,27.623 83.524,25.352 86.067,22.882 C86.067,22.882 86.067,22.883 86.067,22.883 C85.715,24.633 86.994,27.623 89.772,27.623 C91.608,27.623 96.374,23.278 99.325,20.051 C98.426,21.551 97.369,23.173 96.105,24.899 C96.105,25.934 97.358,27.623 98.094,27.623 C99.534,27.623 102.518,22.829 103.355,21.494 C104.108,20.252 108.382,16.32 108.906,16.32 C109.256,16.32 109.224,16.672 109.224,16.672 C109.061,16.917 105.351,21.875 105.351,24.272 C105.351,25.852 106.41,27.622 107.901,27.622 C108.597,27.622 111.764,25.049 114.916,22.283 C114.497,23.255 114.25,23.964 114.25,24.271 C114.25,26.988 115.864,27.621 116.702,27.621 C117.419,27.621 120.028,25.334 122.799,22.696 C122.413,23.492 122.181,24.066 122.181,24.27 C122.181,26.987 123.795,27.62 124.633,27.62 C125.529,27.62 129.37,24.059 132.796,20.697 C132.786,20.73 132.771,20.763 132.761,20.796 C131.944,24.678 134.647,27.619 138.359,27.619 C142.731,27.619 151.679,21.408 151.679,17.731 C151.674,17.242 151.02,15.485 150.571,15.485 Z M96.005,15.33 C96.384,15.33 96.381,15.653 96.24,15.994 C96.005,16.561 93.23,20.575 91.078,20.772 C92.473,18.387 95.074,15.33 96.005,15.33 Z M56.647,22.404 C56.429,22.404 56.252,22.118 56.252,21.873 C56.252,20.211 60.937,14.331 61.577,13.595 C61.577,12.748 60.171,11.875 58.956,11.445 C61.07,11.572 63.911,11.471 66.67,11.233 C65.668,12.952 64.677,14.721 63.777,16.387 C61.049,19.022 57.27,22.404 56.647,22.404 Z M116.62,18.707 C114.291,20.671 111.955,22.417 111.204,22.417 C110.68,22.417 110.811,22.035 110.823,21.899 C110.905,20.928 113.008,17.332 115.601,14.558 C115.601,13.998 115.086,12.819 114.481,12.066 C116.376,12.056 118.39,11.996 120.327,11.895 C118.976,14.24 117.673,16.639 116.62,18.707 Z" id="Shape"></path>
                <path d="M133.771,10.969 C135.078,10.969 139.648,5.603 139.648,4.826 C139.648,3.498 137.809,1.087 136.277,1.087 C135.746,1.087 135.836,1.97 135.664,3.178 C135.46,4.615 133.648,8.292 132.341,9.824 C132.341,10.254 132.913,10.969 133.771,10.969 Z" id="Path"></path>
                <path d="M52.064,3.468 C52.064,2.177 49.509,0.025 47.959,0.025 C47.213,0.843 44.605,3.748 42.324,5.978 C41.586,6.77 36.263,11.148 29.68,15.517 C21.367,15.216 10.51,15.318 8.959,16.244 C7.777,16.949 7.663,19.748 7.677,20.25 C7.713,21.507 8.18,22.192 8.599,22.18 C9.018,22.168 9.37,21.398 9.635,21.256 C12.031,19.963 18.248,19.183 24.523,18.758 C18.577,22.268 12.325,25.121 7.793,25.121 C7.162,25.121 4.424,25.168 2.887,24.26 C0.878,18.267 -0.32,19.465 0.075,22.137 C0.197,22.96 1.723,30.768 9.113,30.768 C14.797,30.768 25.698,23.75 33.009,18.379 C34.572,18.343 35.996,18.33 37.197,18.337 C35.877,20.725 34.65,23.122 34.65,23.653 C34.65,26.034 36.628,27.842 37.805,27.842 C38.264,27.842 38.517,27.008 38.637,26.666 C40.322,21.864 44.898,12.929 46.843,10.255 C48.148,8.439 52.064,4.085 52.064,3.468 Z M40.233,13.175 C39.927,13.615 39.229,14.768 38.428,16.158 C37.898,16.066 37.171,15.979 36.289,15.899 C38.14,14.455 39.498,13.311 40.078,12.744 C40.247,12.744 40.357,12.995 40.233,13.175 Z" id="Shape"></path>
            </g>
            <g id="jobs.v1538019827" transform="translate(200.000000, 16.000000)">
                <circle id="Oval" fill="#31ACE3" cx="28" cy="28" r="28"></circle>
                <g id="Group" transform="translate(9.000000, 23.000000)" fill="#F8F8F8">
                    <path d="M13.2408,9.329 C15.8091429,9.329 17.6184,7.548 17.6184,5.062 C17.6184,2.6 15.8091429,0.841 13.2408,0.841 C10.6837714,0.841 8.8632,2.6 8.8632,5.062 C8.8632,7.548 10.6837714,9.329 13.2408,9.329 Z M13.2408,2.329 C14.7353143,2.329 15.7731429,3.42 15.7731429,5.061 C15.7731429,6.737 14.7229714,7.828 13.2408,7.828 C11.7689143,7.828 10.7197714,6.738 10.7197714,5.061 C10.7197714,3.421 11.7576,2.329 13.2408,2.329 Z M32.4030857,7.782 C31.5586286,7.782 30.6658286,7.477 29.9190857,7.044 L29.0509714,8.427 C29.8594286,8.92 31.1492571,9.329 32.4154286,9.329 C34.5867429,9.329 35.6718857,8.25 35.6718857,6.867 C35.6718857,3.701 31.1132571,4.769 31.1132571,3.256 C31.1132571,2.763 31.5956571,2.388 32.4030857,2.388 C33.1508571,2.388 33.9346286,2.564 34.6824,2.927 L35.3581714,1.531 C34.4170286,1.098 33.4285714,0.84 32.3187429,0.84 C30.3644571,0.84 29.2196571,1.93 29.2196571,3.278 C29.2196571,6.385 33.7782857,5.353 33.7782857,6.89 C33.7772571,7.419 33.3072,7.782 32.4030857,7.782 L32.4030857,7.782 Z M3.51565714,9.329 C5.27657143,9.329 6.39874286,8.356 6.39874286,6.48 L6.39874286,0.981 L4.57714286,0.981 L4.57714286,6.445 C4.57714286,7.289 4.1544,7.77 3.41897143,7.77 C2.81622857,7.77 2.36982857,7.419 2.04377143,6.844 L0.668571429,7.712 C1.30937143,8.755 2.28651429,9.329 3.51565714,9.329 Z M26.9825143,6.844 C26.9825143,5.836 26.3304,5.226 25.4026286,4.933 C26.1864,4.605 26.6688,4.042 26.6688,3.186 C26.6688,1.908 25.7276571,0.982 23.6900571,0.982 L20.1445714,0.982 L20.1445714,9.189 L23.8597714,9.189 C25.7636571,9.189 26.9825143,8.356 26.9825143,6.844 Z M21.9528,2.4 L23.5450286,2.4 C24.4008,2.4 24.8358857,2.811 24.8358857,3.385 C24.8358857,3.994 24.4008,4.405 23.5450286,4.405 L21.9528,4.405 L21.9528,2.4 L21.9528,2.4 Z M21.9528,7.77 L21.9528,5.648 L23.8227429,5.648 C24.6312,5.648 25.1609143,5.999 25.1609143,6.691 C25.1609143,7.406 24.6425143,7.77 23.8227429,7.77 L21.9528,7.77 L21.9528,7.77 Z" id="Shape"></path>
                </g>
            </g>
        </g>
    </g>
</svg>