<svg width="500" height="500" viewBox="0 0 500 500" fill="none" xmlns="http://www.w3.org/2000/svg">
<rect width="500" height="500" fill="#6239EB"/>
<g filter="url(#filter0_d_203_295)">
<path d="M341.162 133.2C341.162 149.067 336.146 162.367 326.112 173.1C316.312 183.833 303.946 192 289.012 197.6C300.679 202.5 308.379 208.45 312.112 215.45L337.662 264.1C348.629 267.833 356.096 272.15 360.062 277.05L356.562 304H297.412L257.162 218.25C253.429 209.617 249.112 205.3 244.212 205.3H221.462V261.3C238.496 265.033 249.112 269.583 253.312 274.95L249.812 304H155.312L151.812 274.95C154.846 270.983 161.262 267.133 171.062 263.4V103.45C161.496 99.95 155.079 95.9833 151.812 91.55L155.312 62.5H244.562C277.229 62.9667 301.496 68.2167 317.362 78.25C333.229 88.2833 341.162 106.6 341.162 133.2ZM242.112 100.65H221.462V167.15H241.412C257.279 167.15 269.062 164.817 276.762 160.15C284.696 155.25 288.662 146.617 288.662 134.25C288.662 121.883 284.696 113.25 276.762 108.35C268.829 103.217 257.279 100.65 242.112 100.65Z" fill="#6239EB"/>
<path d="M326.112 173.1L324.651 171.734L324.635 171.751L326.112 173.1ZM289.012 197.6L288.31 195.727L288.238 199.444L289.012 197.6ZM312.112 215.45L313.883 214.52L313.877 214.509L312.112 215.45ZM337.662 264.1L335.892 265.03L337.018 265.993L337.662 264.1ZM360.062 277.05L362.046 277.308L361.617 275.792L360.062 277.05ZM356.562 304V306L358.546 304.258L356.562 304ZM297.412 304L295.602 304.85L297.412 306V304ZM257.162 218.25L255.327 219.044L255.352 219.1L257.162 218.25ZM221.462 205.3V203.3L219.462 205.3H221.462ZM221.462 261.3H219.462L221.034 263.254L221.462 261.3ZM253.312 274.95L255.298 275.189L254.887 273.717L253.312 274.95ZM249.812 304V306L251.798 304.239L249.812 304ZM155.312 304L153.327 304.239L155.312 306V304ZM151.812 274.95L150.224 273.735L149.827 275.189L151.812 274.95ZM171.062 263.4L171.774 265.269L173.062 263.4H171.062ZM171.062 103.45H173.062L171.749 101.572L171.062 103.45ZM151.812 91.55L149.827 91.3107L150.202 92.7364L151.812 91.55ZM155.312 62.5V60.5L153.327 62.2607L155.312 62.5ZM244.562 62.5L244.591 60.5002L244.562 60.5V62.5ZM317.362 78.25L316.293 79.9404L316.293 79.9404L317.362 78.25ZM221.462 100.65V98.65L219.462 100.65H221.462ZM221.462 167.15H219.462L221.462 169.15V167.15ZM276.762 160.15L277.799 161.86L277.813 161.852L276.762 160.15ZM276.762 108.35L275.676 110.029L275.711 110.052L276.762 108.35ZM339.162 133.2C339.162 148.604 334.309 161.402 324.651 171.734L327.573 174.466C337.982 163.331 343.162 149.529 343.162 133.2H339.162ZM324.635 171.751C315.069 182.229 302.977 190.227 288.31 195.727L289.715 199.473C304.915 193.773 317.556 185.437 327.589 174.449L324.635 171.751ZM288.238 199.444C299.717 204.265 306.927 209.977 310.348 216.391L313.877 214.509C309.831 206.923 301.641 200.735 289.787 195.756L288.238 199.444ZM310.342 216.38L335.892 265.03L339.433 263.17L313.883 214.52L310.342 216.38ZM337.018 265.993C347.883 269.692 354.905 273.858 358.508 278.308L361.617 275.792C357.286 270.442 349.375 265.974 338.307 262.207L337.018 265.993ZM358.079 276.792L354.579 303.742L358.546 304.258L362.046 277.308L358.079 276.792ZM356.562 302H297.412V306H356.562V302ZM299.223 303.15L258.973 217.4L255.352 219.1L295.602 304.85L299.223 303.15ZM258.998 217.456C257.08 213.02 254.945 209.53 252.539 207.123C250.103 204.687 247.316 203.3 244.212 203.3V207.3C246.008 207.3 247.83 208.071 249.711 209.952C251.621 211.862 253.512 214.847 255.327 219.044L258.998 217.456ZM244.212 203.3H221.462V207.3H244.212V203.3ZM219.462 205.3V261.3H223.462V205.3H219.462ZM221.034 263.254C229.483 265.105 236.262 267.144 241.412 269.351C246.6 271.574 249.942 273.889 251.737 276.183L254.887 273.717C252.483 270.645 248.417 268.001 242.988 265.674C237.521 263.331 230.475 261.228 221.89 259.346L221.034 263.254ZM251.327 274.711L247.827 303.761L251.798 304.239L255.298 275.189L251.327 274.711ZM249.812 302H155.312V306H249.812V302ZM157.298 303.761L153.798 274.711L149.827 275.189L153.327 304.239L157.298 303.761ZM153.401 276.165C156.069 272.675 162.016 268.987 171.774 265.269L170.35 261.531C160.509 265.28 153.622 269.291 150.224 273.735L153.401 276.165ZM173.062 263.4V103.45H169.062V263.4H173.062ZM171.749 101.572C162.283 98.1084 156.33 94.31 153.422 90.3636L150.202 92.7364C153.828 97.6567 160.708 101.792 170.375 105.328L171.749 101.572ZM153.798 91.7892L157.298 62.7392L153.327 62.2607L149.827 91.3107L153.798 91.7892ZM155.312 64.5H244.562V60.5H155.312V64.5ZM244.534 64.4998C277.07 64.9646 300.892 70.2014 316.293 79.9404L318.431 76.5596C302.099 66.2319 277.387 60.9687 244.591 60.5002L244.534 64.4998ZM316.293 79.9404C331.358 89.4665 339.162 106.973 339.162 133.2H343.162C343.162 106.227 335.1 87.1001 318.431 76.5596L316.293 79.9404ZM242.112 98.65H221.462V102.65H242.112V98.65ZM219.462 100.65V167.15H223.462V100.65H219.462ZM221.462 169.15H241.412V165.15H221.462V169.15ZM241.412 169.15C257.402 169.15 269.629 166.812 277.799 161.86L275.726 158.44C268.495 162.822 257.156 165.15 241.412 165.15V169.15ZM277.813 161.852C286.525 156.471 290.662 147.055 290.662 134.25H286.662C286.662 146.178 282.866 154.029 275.711 158.448L277.813 161.852ZM290.662 134.25C290.662 121.445 286.525 112.029 277.813 106.648L275.711 110.052C282.866 114.471 286.662 122.322 286.662 134.25H290.662ZM277.849 106.671C269.451 101.237 257.452 98.65 242.112 98.65V102.65C257.106 102.65 268.207 105.197 275.676 110.029L277.849 106.671Z" fill="#F5F5F5"/>
</g>
<path d="M353.162 139.2C353.162 155.067 348.146 168.367 338.112 179.1C328.312 189.833 315.946 198 301.012 203.6C312.679 208.5 320.379 214.45 324.112 221.45L349.662 270.1C360.629 273.833 368.096 278.15 372.062 283.05L368.562 310H309.412L269.162 224.25C265.429 215.617 261.112 211.3 256.212 211.3H233.462V267.3C250.496 271.033 261.112 275.583 265.312 280.95L261.812 310H167.312L163.812 280.95C166.846 276.983 173.262 273.133 183.062 269.4V109.45C173.496 105.95 167.079 101.983 163.812 97.55L167.312 68.5H256.562C289.229 68.9667 313.496 74.2167 329.362 84.25C345.229 94.2833 353.162 112.6 353.162 139.2ZM254.112 106.65H233.462V173.15H253.412C269.279 173.15 281.062 170.817 288.762 166.15C296.696 161.25 300.662 152.617 300.662 140.25C300.662 127.883 296.696 119.25 288.762 114.35C280.829 109.217 269.279 106.65 254.112 106.65Z" fill="#FAFAFA"/>
<rect x="65.5" y="355.5" width="92" height="92" rx="13.5" fill="white" stroke="#6239EB" stroke-width="3"/>
<rect x="69.5881" y="359.588" width="83.8235" height="83.8235" rx="15" fill="#6239EB"/>
<path d="M130.052 385.254C132.062 385.974 133.067 386.934 133.067 388.134C133.067 388.524 132.887 389.259 132.527 390.339L123.887 415.314C123.827 415.524 123.722 415.779 123.572 416.079C123.422 416.379 123.017 416.784 122.357 417.294C121.727 417.774 120.962 418.014 120.062 418.014C119.192 418.014 118.427 417.774 117.767 417.294C117.137 416.784 116.717 416.289 116.507 415.809L111.242 400.284C107.912 410.124 106.217 415.134 106.157 415.314C106.097 415.494 105.962 415.749 105.752 416.079C105.542 416.409 105.302 416.709 105.032 416.979C104.342 417.669 103.517 418.014 102.557 418.014C101.597 418.014 100.802 417.789 100.172 417.339C99.5716 416.889 99.1666 416.439 98.9566 415.989L98.6416 415.314L89.9566 390.339C89.6266 389.349 89.4616 388.614 89.4616 388.134C89.4616 386.934 90.4666 385.989 92.4766 385.299C93.3466 384.999 94.1266 384.849 94.8166 384.849C95.5366 384.849 96.0766 385.089 96.4366 385.569C96.8266 386.049 97.1716 386.784 97.4716 387.774L102.422 402.804L107.327 387.999C107.747 386.739 108.512 385.869 109.622 385.389C110.102 385.179 110.717 385.074 111.467 385.074C112.247 385.074 112.967 385.329 113.627 385.839C114.287 386.319 114.707 386.799 114.887 387.279L120.062 402.894L125.012 387.774C125.252 387.084 125.447 386.574 125.597 386.244C125.747 385.914 126.017 385.599 126.407 385.299C126.827 384.969 127.337 384.804 127.937 384.804C128.537 384.804 129.242 384.954 130.052 385.254Z" fill="white"/>
<rect x="204.5" y="355.5" width="92" height="92" rx="13.5" fill="white" stroke="#6239EB" stroke-width="3"/>
<rect x="208.588" y="359.588" width="83.8235" height="83.8235" rx="15" fill="#6239EB"/>
<path d="M246.824 411.399H259.064C260.054 411.399 260.774 411.519 261.224 411.759C261.674 411.969 261.974 412.314 262.124 412.794C262.274 413.274 262.349 413.919 262.349 414.729C262.349 415.509 262.274 416.139 262.124 416.619C261.974 417.099 261.719 417.429 261.359 417.609C260.789 417.909 260.009 418.059 259.019 418.059H242.819C240.719 418.059 239.489 417.489 239.129 416.349C238.949 415.869 238.859 415.104 238.859 414.054V389.034C238.859 388.344 238.874 387.834 238.904 387.504C238.964 387.144 239.114 386.739 239.354 386.289C239.774 385.479 240.944 385.074 242.864 385.074C244.964 385.074 246.209 385.629 246.599 386.739C246.749 387.249 246.824 388.029 246.824 389.079V411.399Z" fill="white"/>
<rect x="343.5" y="355.5" width="92" height="92" rx="13.5" fill="white" stroke="#6239EB" stroke-width="3"/>
<rect x="347.588" y="359.588" width="83.8235" height="83.8235" rx="15" fill="#6239EB"/>
<path d="M399.509 400.374C401.279 402.474 402.164 404.829 402.164 407.439C402.104 410.439 401.069 412.959 399.059 414.999C397.079 417.009 394.664 418.014 391.814 418.014H379.979C377.879 418.014 376.649 417.444 376.289 416.304C376.109 415.794 376.019 415.014 376.019 413.964V388.989C376.019 388.269 376.034 387.744 376.064 387.414C376.124 387.084 376.274 386.694 376.514 386.244C376.934 385.434 378.104 385.029 380.024 385.029H391.364C394.124 385.029 396.434 385.989 398.294 387.909C400.244 389.859 401.219 392.199 401.219 394.929C401.219 396.909 400.649 398.724 399.509 400.374ZM394.199 406.989C394.199 406.269 394.109 405.699 393.929 405.279C393.779 404.859 393.509 404.559 393.119 404.379C392.519 404.139 391.679 404.019 390.599 404.019C389.519 404.019 388.709 403.809 388.169 403.389C387.629 402.969 387.359 402.114 387.359 400.824C387.359 399.504 387.629 398.634 388.169 398.214C388.739 397.794 389.669 397.584 390.959 397.584C392.159 397.584 392.879 397.269 393.119 396.639C393.209 396.309 393.254 395.769 393.254 395.019C393.254 394.269 392.999 393.744 392.489 393.444C392.009 393.144 391.274 392.994 390.284 392.994H383.984V410.049H391.364C393.254 410.049 394.199 409.029 394.199 406.989Z" fill="white"/>
<defs>
<filter id="filter0_d_203_295" x="147.812" y="62.5" width="216.25" height="249.5" filterUnits="userSpaceOnUse" color-interpolation-filters="sRGB">
<feFlood flood-opacity="0" result="BackgroundImageFix"/>
<feColorMatrix in="SourceAlpha" type="matrix" values="0 0 0 0 0 0 0 0 0 0 0 0 0 0 0 0 0 0 127 0" result="hardAlpha"/>
<feOffset dy="4"/>
<feGaussianBlur stdDeviation="2"/>
<feComposite in2="hardAlpha" operator="out"/>
<feColorMatrix type="matrix" values="0 0 0 0 0 0 0 0 0 0 0 0 0 0 0 0 0 0 0.25 0"/>
<feBlend mode="normal" in2="BackgroundImageFix" result="effect1_dropShadow_203_295"/>
<feBlend mode="normal" in="SourceGraphic" in2="effect1_dropShadow_203_295" result="shape"/>
</filter>
</defs>
</svg>
