<svg xmlns="http://www.w3.org/2000/svg" width="300" height="300"><svg xmlns="http://www.w3.org/2000/svg" width="300" height="300" fill="none" viewBox="0 0 300 300"><rect width="300" height="300" fill="#E9003E" rx="24"/><path fill="#fff" d="m103.211 212.218-.317-33.065q0-34.64 1.907-52.221 1.907-17.582 1.907-18.632 3.495-9.184 13.349-9.184 2.225 0 2.225 2.099 0 .262-.636 4.199-5.721 36.738-5.721 97.095 0 7.347 2.543 33.589 2.542 26.243 2.225 30.441-.318 4.461-5.086 4.461-10.17-.787-22.567-13.121-12.078-12.334-22.566-31.228-10.49-18.894-17.482-44.086T46 133.23q0-24.143 12.078-50.384Q65.07 68.15 74.606 56.079q9.852-12.072 25.745-19.944Q116.243 28 135.313 28q35.281 0 57.212 25.455 22.249 25.192 22.249 57.469 0 37.79-29.56 56.945-15.892 10.497-38.458 12.596-2.226.526-2.225 2.1 0 5.248 11.76 19.156 12.077 13.646 32.102 27.292 20.342 13.383 38.459 14.695c7.839 0 11.955-.806 17.648-5.708 2.119-2.099 4.95-2.275 5.5-2 2 1 4.5 3.843 4.5 6 0 1 .851 2.758-4.446 7.482q-7.947 6.822-15.256 11.284Q217.951 271 196.657 271q-20.977 0-36.234-10.497-14.939-10.496-22.885-27.554-15.574-33.327-15.574-70.328 0-3.936 3.496-3.936 1.272.262 4.45 2.361 9.216 6.036 21.613 7.086 14.304 0 21.613-9.972 7.629-10.234 7.629-26.767 0-16.794-7.311-34.114-7.311-17.583-23.838-30.703t-38.141-13.121q-16.845 0-34.009 20.73-16.845 20.733-16.845 49.598 0 22.043 10.488 49.072 10.49 26.767 30.513 48.023h.318q.954 0 .954-2.099z"/></svg><style>@media (prefers-color-scheme:light){:root{filter:none}}@media (prefers-color-scheme:dark){:root{filter:none}}</style></svg>